<svg width="50" height="50" fill="none" xmlns="http://www.w3.org/2000/svg"><g clip-path="url(#prefix__clip0_1_937)"><path d="M.864 41.38H49.14a.862.862 0 00.862-.863V9.483a.862.862 0 00-.862-.862H.864a.862.862 0 00-.862.862v31.034c0 .476.386.862.862.862z" fill="#C8414B"/><path d="M50.002 15.518h-50v18.965h50V15.518z" fill="#FFD250"/><path d="M21.122 25l.731-3.289a.485.485 0 00-.474-.59h-.514c-.31 0-.541.287-.474.59l.731 3.29z" fill="#C8414B"/><path d="M21.984 23.276H20.26v7.327h1.724v-7.327z" fill="#F5F5F5"/><path d="M22.415 22.414h-2.586v.862h2.586v-.862z" fill="#FAB446"/><path d="M22.417 25h-4.31v.862h4.31V25zM22.417 28.448l-2.586-.862v-.862l2.586.862v.862zM8.193 25l.73-3.29a.485.485 0 00-.473-.59h-.515c-.31 0-.54.288-.473.59l.73 3.29z" fill="#C8414B"/><path d="M11.209 22.414a.862.862 0 00-.862.862v5.604c0 1.047.977 3.017 4.31 3.017 3.333 0 4.31-1.97 4.31-3.017v-5.604a.862.862 0 00-.862-.862H11.21z" fill="#F5F5F5"/><path d="M14.658 26.724h-4.31v-3.448c0-.476.386-.862.862-.862h3.448v4.31zM14.658 26.724h4.31v2.155a2.155 2.155 0 11-4.31 0v-2.155z" fill="#C8414B"/><path d="M10.347 26.724h4.31v2.155a2.155 2.155 0 11-4.31 0v-2.155z" fill="#FAB446"/><path d="M13.793 30.594v-3.87h-.862v4.267c.32-.065.61-.207.862-.397zM12.07 30.991v-4.267h-.863v3.87c.252.19.541.332.862.397z" fill="#C8414B"/><path d="M13.795 25h-2.586v.862h2.586V25z" fill="#FFB441"/><path d="M13.795 23.276h-2.586v.862h2.586v-.862z" fill="#FAB446"/><path d="M13.363 23.788h-1.724v1.562h1.724v-1.562z" fill="#FAB446"/><path d="M9.053 23.276H7.329v7.327h1.724v-7.327z" fill="#F5F5F5"/><path d="M9.482 30.173H6.896v.862h2.586v-.862zM9.482 22.414H6.896v.862h2.586v-.862z" fill="#FAB446"/><path d="M9.916 31.034H6.468v.862h3.448v-.862z" fill="#5064AA"/><path d="M22.846 30.173H20.26v.862h2.586v-.862z" fill="#FAB446"/><path d="M22.846 31.034h-3.448v.862h3.448v-.862z" fill="#5064AA"/><path d="M17.243 21.552h-5.172v.862h5.172v-.862z" fill="#FAB446"/><path d="M15.088 18.966h-.862v2.586h.862v-2.586z" fill="#FFB441"/><path d="M13.794 20.259c-.713 0-1.293-.58-1.293-1.293s.58-1.293 1.293-1.293c.714 0 1.294.58 1.294 1.293s-.58 1.293-1.293 1.293zm0-1.724a.431.431 0 10.001.862.431.431 0 000-.862z" fill="#F5F5F5"/><path d="M15.519 20.259c-.713 0-1.293-.58-1.293-1.293s.58-1.293 1.293-1.293 1.293.58 1.293 1.293-.58 1.293-1.293 1.293zm0-1.724a.431.431 0 100 .862.431.431 0 000-.862z" fill="#F5F5F5"/><path d="M17.243 21.12c-.713 0-1.293-.58-1.293-1.292 0-.713.58-1.293 1.293-1.293s1.293.58 1.293 1.293-.58 1.293-1.293 1.293zm0-1.723a.431.431 0 100 .862.431.431 0 000-.862zM12.07 21.12c-.713 0-1.293-.58-1.293-1.292 0-.713.58-1.293 1.293-1.293s1.293.58 1.293 1.293-.58 1.293-1.293 1.293zm0-1.723a.431.431 0 100 .862.431.431 0 000-.862z" fill="#F5F5F5"/><path d="M17.243 28.448v.431a.432.432 0 01-.862 0v-.43h.862zm.862-.862h-2.586v1.294c0 .713.58 1.293 1.293 1.293s1.293-.58 1.293-1.293v-1.294z" fill="#FAB446"/><path d="M16.812 25.862A.862.862 0 0115.95 25v-.862a.862.862 0 011.724 0V25a.862.862 0 01-.862.862z" fill="#FFA0D2"/><path d="M14.657 28.017a1.293 1.293 0 100-2.586 1.293 1.293 0 000 2.586z" fill="#5064AA"/><path d="M15.088 17.241h-.862v2.587h.862V17.24z" fill="#FAB446"/><path d="M12.07 21.552l-.862-.862.505-.505a4.163 4.163 0 015.887 0l.505.505-.862.862H12.07z" fill="#C8414B"/><path d="M14.656 21.12a.431.431 0 100-.862.431.431 0 000 .863zM12.931 21.12a.431.431 0 100-.862.431.431 0 000 .863zM16.38 21.12a.431.431 0 100-.861.431.431 0 000 .862z" fill="#FFD250"/><path d="M11.207 25h-4.31v.862h4.31V25zM6.896 28.448l2.586-.862v-.862l-2.586.862v.862z" fill="#C8414B"/></g><defs><clipPath id="prefix__clip0_1_937"><path fill="#fff" d="M0 0h50v50H0z"/></clipPath></defs></svg>