<svg viewBox="0 0 32 32" xmlns="http://www.w3.org/2000/svg"><path d="M16 3a13 13 0 1013 13A13.015 13.015 0 0016 3zm10.953 12h-4.98c-.223-4.564-1.98-7.791-3.422-9.7a11.024 11.024 0 018.403 9.7h-.002zm-14.924 2h7.942c-.288 5.201-2.779 8.389-3.971 9.625-1.194-1.238-3.682-4.425-3.971-9.625zm0-2c.289-5.201 2.778-8.389 3.971-9.625 1.194 1.241 3.683 4.429 3.971 9.625H12.03zm1.42-9.7c-1.441 1.909-3.199 5.136-3.423 9.7h-4.98a11.024 11.024 0 018.403-9.7zM5.046 17h4.98c.228 4.564 1.982 7.791 3.423 9.7A11.023 11.023 0 015.046 17zm13.5 9.7c1.442-1.909 3.195-5.136 3.423-9.7h4.98a11.025 11.025 0 01-8.398 9.7h-.005z"/></svg>