<svg viewBox="0 0 24 24" xmlns="http://www.w3.org/2000/svg"><path d="M10.219 10.781c.5.469 1.094.703 1.781.703.688 0 1.266-.234 1.734-.703.5-.5.75-1.094.75-1.781 0-.688-.25-1.266-.75-1.734A2.283 2.283 0 0012 6.516c-.688 0-1.281.25-1.781.75-.469.468-.703 1.046-.703 1.734s.234 1.281.703 1.781zM7.03 4.078C8.406 2.703 10.063 2.016 12 2.016c1.938 0 3.578.687 4.922 2.062C18.297 5.422 18.984 7.062 18.984 9c0 .969-.25 2.078-.75 3.328a19.362 19.362 0 01-1.734 3.516 66.445 66.445 0 01-2.063 3.094 34.745 34.745 0 01-1.687 2.25l-.75.796c-.188-.218-.438-.5-.75-.843a78.875 78.875 0 01-1.688-2.157 47.626 47.626 0 01-2.156-3.14 25.62 25.62 0 01-1.64-3.469c-.5-1.281-.75-2.406-.75-3.375 0-1.938.671-3.578 2.015-4.922z"/></svg>