<svg viewBox="0 0 32 32" xmlns="http://www.w3.org/2000/svg"><path d="M15 5V2a1 1 0 012 0v3a1 1 0 01-2 0zm9 11a8 8 0 11-8-8 8.009 8.009 0 018 8zm-2 0a6 6 0 10-6 6 6.006 6.006 0 006-6zM7.293 8.707a1 1 0 101.414-1.415l-2-2a1 1 0 10-1.414 1.415l2 2zm0 14.585l-2 2a1 1 0 101.414 1.415l2-2a1 1 0 10-1.415-1.415zM24 9a1 1 0 00.707-.293l2-2a1 1 0 00-1.415-1.414l-2 2A1 1 0 0024 9zm.707 14.293a1 1 0 10-1.415 1.415l2 2a1 1 0 001.415-1.415l-2-2zM6 16a1 1 0 00-1-1H2a1 1 0 000 2h3a1 1 0 001-1zm10 10a1 1 0 00-1 1v3a1 1 0 002 0v-3a1 1 0 00-1-1zm14-11h-3a1 1 0 000 2h3a1 1 0 000-2z"/></svg>