<svg width="300" height="300" viewBox="0 0 300 300" fill="none" xmlns="http://www.w3.org/2000/svg">
<circle cx="150" cy="150" r="148.5" fill="#100C30" stroke="black" stroke-width="3"/>
<path d="M114.384 206.334C147.584 206.734 186.907 206.734 201.96 206.201H201.961L228.812 205.284V199.589L213.698 199.2L198.099 198.801L197.353 198.781L197.653 198.099L199.653 193.565C200.161 192.355 200.62 190.44 200.95 188.308C201.28 186.179 201.478 183.871 201.478 181.9V174.241L201.775 174.11L207.509 171.577L207.51 171.576C216.142 167.783 222.812 157.954 222.812 149.101C222.811 144.694 221.024 139.858 218.149 135.685C215.275 131.512 211.347 128.054 207.125 126.365L207.121 126.363L201.921 124.229L201.619 124.106L201.611 123.78L201.211 108.18L200.823 92.9297L153.84 92.5342C140.843 92.4675 128.913 92.5006 120.168 92.6172C115.795 92.6755 112.22 92.7549 109.708 92.8525C108.451 92.9014 107.465 92.9546 106.78 93.0117C106.436 93.0404 106.177 93.0694 106.001 93.0977C105.991 93.0992 105.982 93.102 105.974 93.1035C105.973 93.1058 105.973 93.1081 105.973 93.1104C105.944 93.2825 105.913 93.5402 105.883 93.8857C105.822 94.5737 105.762 95.5716 105.706 96.8496C105.594 99.4037 105.494 103.053 105.411 107.526C105.245 116.472 105.145 128.703 105.145 142.034C105.145 162.504 105.211 174.793 105.494 182.365C105.636 186.152 105.831 188.743 106.096 190.581C106.361 192.42 106.691 193.471 107.084 194.196L107.086 194.198L109.219 198.198L109.611 198.934H82.1113C78.6726 198.934 75.3348 198.854 73.0723 199.371C71.9388 199.63 71.1917 200.016 70.8135 200.53C70.4886 200.972 70.365 201.612 70.6924 202.612C70.7265 202.629 70.7612 202.648 70.7939 202.674C71.0186 202.848 71.0238 203.098 71.0244 203.166C71.0258 203.329 71.0191 203.276 71.0215 203.278C71.0318 203.296 71.1205 203.421 71.54 203.601C71.9505 203.776 72.6207 203.98 73.7041 204.193C78.0486 205.05 88.6457 206.001 114.384 206.334ZM192.811 110.534L152.877 110.5H112.377V105L112.312 100.041L112.305 99.5342H112.811L152.877 99.5H152.879L192.622 99.6338L193.12 99.6348V105.134L193.311 110.015L193.331 110.534H192.811ZM201.478 132.134L202.213 132.526L206.213 134.659L206.212 134.66C207.344 135.229 208.585 136.234 209.684 137.35C210.789 138.472 211.786 139.741 212.413 140.855L212.418 140.863L212.615 141.258C216.509 149.279 213.793 159.401 206.559 163.359L206.205 163.546L202.213 165.675L201.478 166.067V132.134ZM193.145 190.229L193.012 190.374L189.678 193.974H189.679L186.479 197.439L186.33 197.601H153.711C144.614 197.601 137.73 197.593 132.488 197.44C127.253 197.288 123.619 196.992 121.034 196.405C118.436 195.816 116.839 194.919 115.743 193.529C114.671 192.17 114.125 190.386 113.497 188.171L113.491 188.149C113.313 187.402 113.145 185.8 112.989 183.575C112.832 181.332 112.687 178.413 112.562 175.002C112.311 168.179 112.145 159.373 112.145 150.034V150.03L112.377 117.097L112.381 116.601H193.145V190.229Z" fill="black" stroke="black"/>
<rect x="112.811" y="100.034" width="80" height="10" fill="#EA8A8A"/>
<path d="M115.811 193.534C111.811 191.534 111.811 170.534 112.946 117.034H192.811L192.311 190.034L185.811 197.034L126.311 196.534L118.811 195.034L115.811 193.534Z" fill="#FF0000" stroke="black"/>
<rect x="126.811" y="117.034" width="28" height="49" fill="#EA8A8A"/>
<path d="M169.912 143.401C169.912 144.601 171.778 147.668 174.178 150.068L178.445 154.468L174.178 158.868C169.912 163.268 168.445 169.135 171.645 169.135C172.578 169.135 176.578 165.935 180.445 161.935L187.645 154.735L181.245 147.935C174.845 141.135 169.912 139.135 169.912 143.401Z" fill="black"/>
<ellipse cx="140.811" cy="165.534" rx="14" ry="8.5" fill="#EA8A8A"/>
<path d="M128.845 146.868C125.778 149.935 123.245 153.668 123.245 155.135C123.245 158.335 133.645 169.135 136.845 169.135C140.712 169.135 139.645 165.001 134.312 159.535L129.378 154.468L134.312 149.401C136.978 146.601 139.245 143.668 139.245 142.735C139.245 139.401 134.312 141.401 128.845 146.868Z" fill="black"/>
<path d="M151.778 152.735C145.778 165.668 144.978 169.801 148.578 169.801C150.978 169.801 163.645 144.201 162.712 141.535C160.845 136.868 157.512 140.335 151.778 152.735Z" fill="black"/>
<path d="M161.311 179.534H139.811H124.811H120.811L117.311 179.034L114.811 178.034L112.811 177.034L113.311 184.034L113.811 189.034L115.311 192.534L116.811 193.534L118.811 194.534L126.311 196.034H136.311H152.311L185.811 196.534L192.311 189.534L191.811 164.534L187.811 167.534L184.811 170.034L181.811 172.034L178.311 174.034L173.811 176.034L169.811 177.534L165.311 179.034L161.311 179.534Z" fill="#BC0000"/>
</svg>
