<svg width="190" height="190" fill="none" xmlns="http://www.w3.org/2000/svg"><circle cx="95" cy="95" r="94.106" fill="#1860F2" stroke="#000" stroke-width="1.788"/><path d="M45.5 132.119c.353 0 .6.056.741.169.156.099.234.304.234.615a3 3 0 01-.022.403c-.056.438-.233 1.568-.53 3.391-.212 1.23-.346 2.042-.402 2.438-.537 3.646-1.265 6.521-2.184 8.627-.904 2.12-2.12 3.179-3.645 3.179-.721 0-1.307-.226-1.76-.678-.452-.438-.678-1.017-.678-1.738 0-1.003.396-2.084 1.187-3.243.791-1.145 2.275-2.558 4.451-4.239l.127-.827c-.24.381-.558.678-.953.89a2.466 2.466 0 01-1.145.297c-.876 0-1.576-.318-2.098-.954-.523-.636-.785-1.47-.785-2.501 0-1.131.262-2.198.785-3.201.522-1.017 1.215-1.83 2.077-2.438.876-.621 1.802-.932 2.777-.932.31 0 .515.063.614.191.113.113.205.325.276.635.268-.056.58-.084.932-.084zm-3.816 7.143c.325 0 .636-.198.933-.594.297-.395.509-.96.636-1.695l.678-3.625c-.58.014-1.116.24-1.611.678-.495.424-.89.99-1.187 1.696a5.748 5.748 0 00-.445 2.247c0 .438.085.763.254.975.184.212.431.318.742.318zm-1.76 9.623c.354 0 .75-.424 1.188-1.271.452-.848.883-2.198 1.293-4.049-1.088.933-1.873 1.773-2.353 2.522-.48.749-.72 1.406-.72 1.972 0 .24.042.438.127.593.098.156.254.233.466.233zm9.374-7.482c-.621 0-1.095-.17-1.42-.509-.31-.339-.466-.784-.466-1.335 0-.636.177-1.145.53-1.526.367-.382.876-.573 1.526-.573.622 0 1.088.156 1.399.467.325.296.488.741.488 1.335 0 .65-.184 1.173-.552 1.569-.367.381-.869.572-1.505.572zm6.382 0c-.876 0-1.575-.318-2.098-.954-.523-.636-.785-1.47-.785-2.501 0-1.131.262-2.198.785-3.201.523-1.017 1.215-1.83 2.077-2.438.876-.621 1.802-.932 2.777-.932.31 0 .516.063.614.191.114.113.205.325.276.635.297-.056.608-.084.933-.084.692 0 1.038.247 1.038.742 0 .296-.106 1.003-.318 2.119-.325 1.625-.487 2.756-.487 3.392 0 .212.05.381.148.508a.541.541 0 00.424.191c.269 0 .594-.169.975-.509.382-.353.898-.918 1.547-1.695.17-.198.36-.297.573-.297.184 0 .325.085.424.254.113.17.17.403.17.7 0 .565-.135 1.003-.403 1.314a10.68 10.68 0 01-1.844 1.823c-.65.495-1.28.742-1.887.742-.466 0-.897-.156-1.293-.466-.382-.325-.671-.764-.87-1.315-.734 1.187-1.66 1.781-2.776 1.781zm.763-2.141c.311 0 .608-.184.89-.551.283-.368.488-.855.615-1.463l.785-3.9c-.594.014-1.145.24-1.654.678-.495.424-.89.99-1.187 1.696a5.748 5.748 0 00-.445 2.247c0 .438.085.763.254.975.184.212.431.318.742.318zm14.62-2.692c.184 0 .325.085.424.254.113.17.17.403.17.7 0 .565-.135 1.003-.403 1.314a9.005 9.005 0 01-1.993 1.844c-.706.481-1.511.721-2.416.721-1.243 0-2.17-.565-2.777-1.696-.593-1.13-.89-2.593-.89-4.388 0-1.724.219-3.688.657-5.892.452-2.205 1.11-4.098 1.971-5.681.877-1.583 1.915-2.374 3.116-2.374.679 0 1.209.318 1.59.954.396.622.594 1.519.594 2.692 0 1.681-.467 3.631-1.4 5.85-.932 2.219-2.197 4.416-3.794 6.592.1.58.262.997.488 1.251.226.24.523.36.89.36.58 0 1.088-.162 1.526-.487.438-.339.997-.912 1.675-1.717.17-.198.36-.297.572-.297zm-2.607-13.1c-.325 0-.692.587-1.102 1.76-.41 1.173-.77 2.628-1.081 4.366a31.627 31.627 0 00-.509 5.003c1.003-1.654 1.802-3.307 2.395-4.96.594-1.668.89-3.187.89-4.558 0-1.074-.197-1.611-.593-1.611zm10.941 13.1c.184 0 .325.085.424.254.113.17.17.403.17.7 0 .565-.135 1.003-.403 1.314-.523.636-1.265 1.222-2.226 1.759a6.087 6.087 0 01-3.052.806c-1.484 0-2.636-.403-3.455-1.208-.82-.806-1.23-1.908-1.23-3.307 0-.975.205-1.88.615-2.713.41-.848.975-1.519 1.696-2.014a4.338 4.338 0 012.48-.742c.82 0 1.477.247 1.971.742.495.481.742 1.138.742 1.971 0 .975-.353 1.816-1.06 2.523-.692.692-1.872 1.243-3.54 1.653.354.65 1.025.975 2.014.975.636 0 1.357-.219 2.162-.657a7.279 7.279 0 002.12-1.759c.17-.198.36-.297.572-.297zm-5.341-3.074c-.523 0-.968.304-1.336.912-.353.608-.53 1.342-.53 2.204v.043c.834-.198 1.491-.495 1.972-.89.48-.396.72-.855.72-1.378 0-.269-.077-.481-.233-.636-.141-.17-.339-.255-.593-.255zm15.942 3.074c.184 0 .325.085.424.254.113.17.17.403.17.7 0 .565-.135 1.003-.403 1.314a9.238 9.238 0 01-1.972 1.844c-.692.481-1.483.721-2.374.721-.749 0-1.356-.269-1.823-.806-.805.523-1.646.792-2.522.806-.184 2.727-.6 5.002-1.25 6.825-.65 1.837-1.605 2.756-2.862 2.756-.763 0-1.328-.276-1.696-.827-.367-.551-.551-1.314-.551-2.289 0-1.385.318-3.003.954-4.854.636-1.837 1.618-3.865 2.946-6.084 0-2.063-.014-3.497-.042-4.303a1.086 1.086 0 01.487-.975c.34-.24.763-.36 1.272-.36.297 0 .509.064.636.191.141.113.22.346.233.699 0 .354.007.615.021.785.453-.566.898-.968 1.336-1.209a2.745 2.745 0 011.399-.381c.791 0 1.434.318 1.929.954.508.636.763 1.469.763 2.501 0 .749-.12 1.477-.36 2.183a7.12 7.12 0 01-.997 1.929c.297.085.544.127.742.127.466 0 .912-.169 1.335-.509.424-.339.968-.904 1.633-1.695.17-.198.36-.297.572-.297zm-8.394 2.798c.509-.113.975-.389 1.399-.827a4.915 4.915 0 001.039-1.653 5.759 5.759 0 00.381-2.077c0-.424-.085-.742-.254-.954a.806.806 0 00-.678-.339c-.51 0-1.124.537-1.845 1.611a130.6 130.6 0 00-.02 2.734c0 .65-.008 1.152-.022 1.505zm-4.049 9.539c.382 0 .7-.834.954-2.502.255-1.653.417-3.716.488-6.189a31.23 31.23 0 00-1.442 4.048c-.353 1.286-.53 2.367-.53 3.244 0 .452.057.798.17 1.038.099.24.22.361.36.361zm12.834-7.504c-.537 0-.919-.283-1.145-.848-.212-.565-.318-1.47-.318-2.713 0-1.837.262-3.582.785-5.236.127-.41.332-.706.614-.89.297-.198.707-.297 1.23-.297.282 0 .48.035.593.106.113.071.17.205.17.403 0 .226-.106.735-.318 1.526-.141.565-.254 1.06-.34 1.484-.084.424-.155.947-.211 1.568.466-1.215.989-2.204 1.568-2.967.58-.763 1.145-1.307 1.696-1.632.565-.325 1.081-.488 1.547-.488.919 0 1.378.459 1.378 1.378 0 .184-.063.629-.19 1.335-.114.566-.17.919-.17 1.06 0 .495.176.742.53.742.395 0 .904-.311 1.526-.933.184-.183.374-.275.572-.275.184 0 .325.085.424.254.113.156.17.368.17.636 0 .523-.142.933-.424 1.23a5.885 5.885 0 01-1.4 1.059 3.464 3.464 0 01-1.674.424c-.749 0-1.321-.19-1.717-.572-.381-.382-.572-.897-.572-1.547 0-.212.021-.424.064-.636.028-.283.042-.474.042-.573 0-.226-.078-.339-.233-.339-.212 0-.495.241-.848.721-.34.466-.678 1.088-1.017 1.865-.34.778-.615 1.597-.827 2.459-.156.664-.34 1.116-.551 1.357-.198.226-.516.339-.954.339zm18.951-6.614c.184 0 .326.092.424.276.099.184.149.417.149.7 0 .678-.205 1.081-.615 1.208-.848.296-1.78.466-2.798.508-.268 1.187-.798 2.141-1.59 2.862-.791.707-1.688 1.06-2.692 1.06-.848 0-1.575-.205-2.183-.615a3.936 3.936 0 01-1.356-1.632 5.225 5.225 0 01-.467-2.204c0-1.074.205-2.028.615-2.862.41-.848.975-1.505 1.696-1.971a4.22 4.22 0 012.395-.721c1.074 0 1.936.374 2.586 1.123.664.735 1.053 1.647 1.166 2.735.664-.043 1.455-.184 2.374-.424.113-.028.212-.043.296-.043zm-6.952 4.367c.452 0 .841-.184 1.166-.551.339-.368.565-.897.678-1.59a3.004 3.004 0 01-1.017-1.166 3.54 3.54 0 01-.34-1.526c0-.226.022-.452.064-.678h-.106c-.565 0-1.039.275-1.42.827-.368.536-.551 1.3-.551 2.289 0 .777.148 1.37.445 1.78.311.41.671.615 1.081.615zm7.974-9.136c-.594 0-1.039-.134-1.336-.403-.297-.282-.445-.671-.445-1.165 0-.495.191-.905.572-1.23.396-.339.884-.509 1.463-.509.523 0 .947.128 1.272.382.325.254.487.615.487 1.081 0 .565-.183 1.018-.551 1.357-.367.325-.855.487-1.462.487zm3.815 6.592c.184 0 .325.092.424.276.113.17.17.389.17.657 0 .325-.05.579-.149.763a1.388 1.388 0 01-.466.488c-.989.65-2.311 1.547-3.964 2.692-.551 2.939-1.265 5.249-2.141 6.931-.876 1.682-1.992 2.522-3.349 2.522-.735 0-1.321-.226-1.759-.678-.452-.438-.679-1.017-.679-1.738 0-1.003.389-2.077 1.166-3.222.777-1.13 2.24-2.529 4.388-4.197l.148-1.081c.198-1.357.354-2.692.467-4.006.084-.763.219-1.901.402-3.413.057-.41.212-.706.467-.89.254-.198.643-.297 1.166-.297.424 0 .699.064.826.191.142.127.212.304.212.53 0 .65-.233 2.445-.699 5.384l-.212 1.462a70.124 70.124 0 013.094-2.204c.184-.113.347-.17.488-.17zm-9.242 12.273c.368 0 .77-.417 1.208-1.25.438-.834.848-2.176 1.23-4.028-1.074.919-1.844 1.746-2.311 2.48-.48.749-.72 1.406-.72 1.972 0 .551.198.826.593.826zm17.994-12.315c.184 0 .325.085.424.254.113.17.17.403.17.7 0 .565-.134 1.003-.403 1.314-.523.636-1.265 1.222-2.226 1.759a6.084 6.084 0 01-3.052.806c-1.484 0-2.635-.403-3.455-1.208-.82-.806-1.229-1.908-1.229-3.307 0-.975.204-1.88.614-2.713.41-.848.975-1.519 1.696-2.014a4.34 4.34 0 012.48-.742c.82 0 1.477.247 1.971.742.495.481.742 1.138.742 1.971 0 .975-.353 1.816-1.06 2.523-.692.692-1.872 1.243-3.539 1.653.353.65 1.024.975 2.013.975.636 0 1.357-.219 2.162-.657a7.281 7.281 0 002.12-1.759c.17-.198.36-.297.572-.297zm-5.341-3.074c-.523 0-.968.304-1.336.912-.353.608-.53 1.342-.53 2.204v.043c.834-.198 1.491-.495 1.972-.89.48-.396.72-.855.72-1.378 0-.269-.077-.481-.233-.636-.141-.17-.339-.255-.593-.255zm13.663 3.074c.183 0 .325.085.424.254.113.17.169.403.169.7 0 .565-.134 1.003-.403 1.314a8.981 8.981 0 01-1.992 1.844c-.721.481-1.547.721-2.48.721-2.883 0-4.324-2.028-4.324-6.084 0-.621.021-1.25.063-1.886h-.826c-.424 0-.714-.078-.869-.233-.142-.156-.212-.403-.212-.742 0-.792.318-1.187.954-1.187h1.208c.24-1.555.607-2.975 1.102-4.261.495-1.286 1.088-2.31 1.781-3.073.706-.763 1.462-1.145 2.268-1.145.593 0 1.059.261 1.399.784.339.523.508 1.18.508 1.972 0 2.19-.918 4.098-2.755 5.723h2.374c.226 0 .388.049.487.148.099.099.149.283.149.551 0 .975-.799 1.463-2.396 1.463h-2.586a44.46 44.46 0 00-.042 1.653c0 1.47.17 2.501.509 3.095.353.593.904.89 1.653.89.608 0 1.145-.183 1.611-.551.466-.367 1.017-.918 1.653-1.653.17-.198.361-.297.573-.297zm-3.71-11.743c-.212 0-.452.268-.72.805-.255.523-.502 1.258-.742 2.205a31.169 31.169 0 00-.573 3.116c.834-.721 1.456-1.526 1.866-2.417.424-.904.636-1.724.636-2.458 0-.834-.156-1.251-.467-1.251zm6.16 16.576c-.834 0-1.548-.205-2.141-.615a3.979 3.979 0 01-1.314-1.653 5.382 5.382 0 01-.446-2.183c0-1.074.198-2.028.594-2.862.41-.848.961-1.505 1.653-1.971a3.994 3.994 0 012.332-.721c.834 0 1.547.212 2.141.636a3.79 3.79 0 011.335 1.632c.297.678.445 1.406.445 2.183 0 1.074-.205 2.035-.614 2.883-.41.834-.968 1.491-1.675 1.971a4.04 4.04 0 01-2.31.7zm.233-2.289c.48 0 .883-.262 1.208-.785.339-.523.509-1.286.509-2.289 0-.777-.142-1.364-.424-1.759-.283-.396-.622-.594-1.018-.594-.508 0-.932.262-1.271.785-.326.508-.488 1.271-.488 2.289 0 .805.141 1.399.424 1.78.283.382.636.573 1.06.573zm9.628 2.755c-.735 0-1.3-.169-1.696-.509-.381-.339-.572-.72-.572-1.144a1.3 1.3 0 01.403-.954c.268-.269.664-.403 1.187-.403.184 0 .396.021.636.064l.572.063a2.618 2.618 0 00-.254-1.038 4.536 4.536 0 00-.551-.933 11.382 11.382 0 00-.636-.805c-.438.833-.876 1.526-1.314 2.077a14.646 14.646 0 01-1.399 1.568c-.255.255-.523.382-.806.382a.711.711 0 01-.551-.233.932.932 0 01-.212-.615c0-.282.099-.544.297-.784l.275-.339c.778-.961 1.364-1.753 1.76-2.374.254-.41.508-.898.763-1.463.268-.565.614-1.335 1.038-2.31.269-.622.827-.933 1.675-.933.396 0 .671.035.827.106.155.071.233.184.233.339 0 .085-.028.219-.085.403a3.09 3.09 0 01-.233.551c-.255.509-.382.94-.382 1.293 0 .212.071.445.212.699.156.255.389.573.7.954.452.594.791 1.103 1.017 1.527.24.409.361.862.361 1.356 0 .594-.142 1.159-.424 1.696-.269.523-.65.947-1.145 1.272a3.02 3.02 0 01-1.696.487z" fill="#fff"/><path d="M70.069 112.849c23.363.282 51.035.281 61.629-.094h.001l18.914-.645v-4.049l-10.655-.273-10.978-.282-.494-.012.2-.452 1.407-3.191c.359-.854.682-2.204.914-3.705.233-1.499.371-3.124.371-4.512v-5.377l.198-.087 4.035-1.782v0c6.081-2.673 10.78-9.597 10.78-15.836 0-3.106-1.259-6.513-3.284-9.452s-4.792-5.376-7.768-6.566l-.002-.001-3.659-1.501-.2-.082-.006-.216-.281-10.978-.274-10.75-33.082-.28c-9.146-.047-17.541-.023-23.696.059-3.078.04-5.593.096-7.361.165-.885.034-1.578.072-2.06.112-.243.02-.426.04-.55.06-.012.002-.023.006-.034.007 0 .007-.002.013-.004.02-.02.122-.041.304-.063.547a50.701 50.701 0 00-.124 2.087c-.08 1.797-.15 4.365-.208 7.513-.117 6.296-.188 14.902-.188 24.284 0 14.404.047 23.052.247 28.381.099 2.665.236 4.49.422 5.785.187 1.295.42 2.037.699 2.55v.002l1.501 2.815.26.487H47.36c-2.418 0-4.77-.057-6.365.308-.8.182-1.331.456-1.602.824-.235.32-.319.78-.082 1.495.024.012.05.024.072.042a.41.41 0 01.155.329c0 .113-.005.081 0 .09.011.018.078.108.375.235.29.125.764.268 1.527.418 3.06.603 10.518 1.273 28.63 1.508zm55.19-67.457l-28.102-.023H68.678v-3.85l-.047-3.49-.004-.336h.335l28.195-.024h.002l27.966.094.331.001V41.6l.134 3.448.013.345h-.344zm6.119 15.256l.488.26 2.814 1.5-.001.002c.794.399 1.666 1.104 2.439 1.888.777.79 1.477 1.68 1.918 2.462l.005.011c2.979 5.767.982 13.206-4.367 15.929l-2.808 1.498-.488.26v-23.81zm-5.905 40.839l-.088.096-2.345 2.533-2.252 2.439-.099.107H97.745c-6.402 0-11.246-.006-14.935-.114-3.684-.107-6.24-.315-8.057-.727-1.825-.415-2.944-1.044-3.71-2.017-.658-.834-1.034-1.896-1.414-3.193l-.164-.57-.004-.014c-.124-.524-.243-1.65-.352-3.216-.11-1.578-.213-3.632-.3-6.032-.177-4.802-.295-10.998-.295-17.57v-.002l.164-23.175.002-.33h56.793v51.785z" fill="#000" stroke="#000" stroke-width=".662"/><path fill="#EA8A8A" d="M68.963 38.024h56.296v7.037H68.963z"/><path d="M71.074 103.821c-2.814-1.407-2.815-16.185-2.016-53.833h56.201l-.351 51.37-4.574 4.926-41.87-.352-5.279-1.055-2.11-1.056z" fill="red" stroke="#000" stroke-width=".662"/><path fill="#EA8A8A" d="M78.814 49.988h19.704v34.481H78.814z"/><path d="M109.145 68.542c0 .845 1.313 3.003 3.002 4.692l3.003 3.096-3.003 3.096c-3.002 3.096-4.034 7.225-1.782 7.225.656 0 3.471-2.252 6.192-5.067l5.067-5.067-4.504-4.785c-4.504-4.785-7.975-6.192-7.975-3.19z" fill="#000"/><ellipse cx="88.666" cy="84.117" rx="9.852" ry="5.981" fill="#EA8A8A"/><path d="M80.246 70.982c-2.158 2.158-3.94 4.785-3.94 5.817 0 2.252 7.318 9.852 9.57 9.852 2.72 0 1.97-2.909-1.783-6.756L80.62 76.33l3.472-3.566c1.876-1.97 3.471-4.034 3.471-4.69 0-2.347-3.471-.94-7.318 2.908zM96.384 75.11c-4.222 9.102-4.785 12.01-2.252 12.01 1.69 0 10.603-18.014 9.946-19.89-1.313-3.285-3.659-.845-7.694 7.88z" fill="#000"/><path d="M103.093 93.969h-28.5l-2.463-.352-1.76-.704-1.407-.704.352 4.926.352 3.519 1.055 2.463 1.056.703 1.407.704 5.278 1.056H96.76l23.573.352 4.574-4.926-.352-17.593-2.814 2.111-2.111 1.76-2.112 1.407-2.463 1.407-3.166 1.408-2.815 1.055-3.167 1.056-2.814.352z" fill="#BC0000"/><path d="M70.07 112.849c23.363.282 51.035.281 61.629-.094h.001l18.914-.645v-4.049l-10.655-.273-10.978-.282-.494-.012.2-.452 1.407-3.191c.359-.854.682-2.204.915-3.705.232-1.499.371-3.124.371-4.512v-5.377l.197-.087 4.035-1.782v0c6.082-2.673 10.78-9.597 10.78-15.836 0-3.106-1.259-6.513-3.284-9.452-2.024-2.939-4.792-5.376-7.767-6.566l-.002-.001-3.66-1.501-.2-.082-.006-.216-.281-10.978-.273-10.75-33.082-.28c-9.147-.047-17.542-.023-23.697.059-3.077.04-5.593.096-7.36.165-.885.034-1.58.072-2.061.112-.242.02-.425.04-.55.06-.012.002-.023.006-.034.007 0 .007-.002.013-.003.02-.02.122-.042.304-.064.547a50.882 50.882 0 00-.124 2.087c-.079 1.797-.15 4.365-.208 7.513-.117 6.296-.187 14.902-.187 24.284 0 14.404.047 23.052.246 28.381.1 2.665.236 4.49.422 5.785.187 1.295.42 2.037.699 2.55v.002l1.502 2.815.26.487H47.36c-2.418 0-4.77-.057-6.365.308-.8.182-1.331.456-1.602.824-.235.32-.318.78-.082 1.495.025.012.05.024.072.042a.41.41 0 01.155.329c0 .113-.005.081 0 .09.011.018.078.108.375.235.29.125.764.268 1.527.418 3.06.603 10.518 1.273 28.63 1.508zm55.19-67.457l-28.102-.023H68.679v-3.85l-.046-3.49-.004-.336h.335l28.194-.024h.002l27.967.094.33.001V41.6l.135 3.448.012.345h-.344zm6.12 15.256l.487.26 2.814 1.5-.001.002c.795.399 1.666 1.104 2.439 1.888.777.79 1.478 1.68 1.918 2.462l.005.011c2.979 5.767.982 13.206-4.366 15.929l-2.809 1.498-.487.26v-23.81zm-5.906 40.839l-.088.096-2.345 2.533-2.252 2.439-.099.107H97.746c-6.402 0-11.246-.006-14.935-.114-3.684-.107-6.24-.315-8.056-.727-1.826-.415-2.944-1.044-3.711-2.017-.658-.834-1.033-1.896-1.413-3.193l-.164-.57-.004-.014c-.125-.524-.243-1.65-.353-3.216-.11-1.578-.213-3.632-.3-6.032-.177-4.802-.295-10.998-.295-17.57v-.002l.164-23.175.002-.33h56.793v51.785z" fill="#000" stroke="#000" stroke-width=".662"/></svg>